<svg version="1.1" id="Layer_1" xmlns="http://www.w3.org/2000/svg" xmlns:xlink="http://www.w3.org/1999/xlink" x="0px" y="0px"
	 width="100%" viewBox="0 0 192 192" enable-background="new 0 0 192 192" xml:space="preserve">
<path fill="#FDFDFD" opacity="1.000000" stroke="none" 
	d="
M0.999997,184.000000 
	C1.000000,126.312439 1.000000,68.624878 1.313184,10.777187 
	C3.424622,8.694409 5.262818,6.807090 7.006386,4.836063 
	C8.079013,3.623504 9.007044,2.283036 10.000000,1.000000 
	C67.687561,1.000000 125.375122,1.000000 183.242279,1.297972 
	C185.786865,4.326798 188.092667,7.113698 190.573654,9.734752 
	C190.999985,10.185176 192.172287,9.929502 193.000000,10.000000 
	C193.000000,67.687561 193.000000,125.375122 192.684158,183.222336 
	C190.566483,185.313263 188.725830,187.210220 186.977219,189.188522 
	C185.911514,190.394241 184.987610,191.725266 184.000000,193.000000 
	C126.312439,193.000000 68.624878,193.000000 10.777670,192.684143 
	C8.686762,190.566483 6.789808,188.725830 4.811482,186.977249 
	C3.605768,185.911545 2.274738,184.987610 0.999997,184.000000 
M28.378727,49.928307 
	C25.665625,49.503578 24.238665,50.458622 24.781481,53.382553 
	C25.200392,55.639061 25.368288,58.019066 26.227724,60.105251 
	C37.365948,87.142113 48.652908,114.117783 59.749535,141.171555 
	C60.776222,143.674637 62.079441,144.450653 64.554443,144.229599 
	C67.068848,144.005005 69.591545,144.884460 71.059799,141.362167 
	C76.109695,129.247543 81.127968,117.087433 86.949539,105.336647 
	C91.943100,95.257179 88.948250,84.990303 90.038979,74.850456 
	C89.539482,74.717316 89.039986,74.584167 88.540482,74.451027 
	C80.946144,91.560127 73.351814,108.669228 65.520454,126.312309 
	C64.600594,124.507568 63.918049,123.370277 63.418129,122.157700 
	C54.046001,99.425018 44.618217,76.714569 35.429688,53.907768 
	C34.153122,50.739201 32.610680,49.299286 28.378727,49.928307 
M118.693268,78.499863 
	C118.693268,100.271713 118.693268,122.043556 118.693268,143.927979 
	C135.778641,143.927979 152.353973,143.927979 168.940598,143.927979 
	C168.940598,140.454224 168.940598,137.243546 168.940598,133.539856 
	C155.547195,133.539856 142.479843,133.539856 129.037506,133.539856 
	C129.037506,105.445488 129.037506,77.854256 129.037506,50.248711 
	C125.397514,50.248711 122.161110,50.248711 118.693268,50.248711 
	C118.693268,59.532337 118.693268,68.516090 118.693268,78.499863 
M96.458740,120.499718 
	C96.458740,128.273544 96.458740,136.047379 96.458740,143.918701 
	C100.362061,143.918701 103.765587,143.918701 107.158501,143.918701 
	C107.158501,112.507271 107.158501,81.393539 107.158501,50.258934 
	C103.551163,50.258934 100.160072,50.258934 96.458786,50.258934 
	C96.458786,73.566406 96.458786,96.533066 96.458740,120.499718 
M35.561546,100.187965 
	C32.393158,92.072159 29.224766,83.956360 26.056376,75.840553 
	C25.719929,75.940926 25.383482,76.041298 25.047035,76.141670 
	C25.047035,98.702766 25.047035,121.263870 25.047035,143.844070 
	C28.526461,143.844070 31.910828,143.844070 35.579044,143.844070 
	C35.579044,129.343536 35.579044,115.205315 35.561546,100.187965 
z"/>
<path fill="#000000" opacity="1.000000" stroke="none" 
	d="
M0.999997,184.491058 
	C2.274738,184.987610 3.605768,185.911545 4.811482,186.977249 
	C6.789808,188.725830 8.686762,190.566483 10.309011,192.684143 
	C7.082646,193.000000 4.165292,193.000000 1.000000,193.000000 
	C1.000000,190.330002 1.000000,187.656052 0.999997,184.491058 
z"/>
<path fill="#000000" opacity="1.000000" stroke="none" 
	d="
M184.491058,193.000000 
	C184.987610,191.725266 185.911514,190.394241 186.977219,189.188522 
	C188.725830,187.210220 190.566483,185.313263 192.684158,183.690994 
	C193.000000,186.917358 193.000000,189.834702 193.000000,193.000000 
	C190.330002,193.000000 187.656052,193.000000 184.491058,193.000000 
z"/>
<path fill="#000000" opacity="1.000000" stroke="none" 
	d="
M9.508951,1.000000 
	C9.007044,2.283036 8.079013,3.623504 7.006386,4.836063 
	C5.262818,6.807090 3.424622,8.694409 1.313184,10.308531 
	C1.000000,7.082645 1.000000,4.165290 1.000000,1.000000 
	C3.670005,1.000000 6.343954,1.000000 9.508951,1.000000 
z"/>
<path fill="#000000" opacity="1.000000" stroke="none" 
	d="
M193.000000,9.508951 
	C192.172287,9.929502 190.999985,10.185176 190.573654,9.734752 
	C188.092667,7.113698 185.786865,4.326798 183.710938,1.297972 
	C186.917358,1.000000 189.834702,1.000000 193.000000,1.000000 
	C193.000000,3.670005 193.000000,6.343954 193.000000,9.508951 
z"/>
<path fill="#080808" opacity="1.000000" stroke="none" 
	d="
M28.833313,49.928276 
	C32.610680,49.299286 34.153122,50.739201 35.429688,53.907768 
	C44.618217,76.714569 54.046001,99.425018 63.418129,122.157700 
	C63.918049,123.370277 64.600594,124.507568 65.520454,126.312309 
	C73.351814,108.669228 80.946144,91.560127 88.540482,74.451027 
	C89.039986,74.584167 89.539482,74.717316 90.038979,74.850456 
	C88.948250,84.990303 91.943100,95.257179 86.949539,105.336647 
	C81.127968,117.087433 76.109695,129.247543 71.059799,141.362167 
	C69.591545,144.884460 67.068848,144.005005 64.554443,144.229599 
	C62.079441,144.450653 60.776222,143.674637 59.749535,141.171555 
	C48.652908,114.117783 37.365948,87.142113 26.227724,60.105251 
	C25.368288,58.019066 25.200392,55.639061 24.781481,53.382553 
	C24.238665,50.458622 25.665625,49.503578 28.833313,49.928276 
z"/>
<path fill="#000000" opacity="1.000000" stroke="none" 
	d="
M118.693268,77.999855 
	C118.693268,68.516090 118.693268,59.532337 118.693268,50.248711 
	C122.161110,50.248711 125.397514,50.248711 129.037506,50.248711 
	C129.037506,77.854256 129.037506,105.445488 129.037506,133.539856 
	C142.479843,133.539856 155.547195,133.539856 168.940598,133.539856 
	C168.940598,137.243546 168.940598,140.454224 168.940598,143.927979 
	C152.353973,143.927979 135.778641,143.927979 118.693268,143.927979 
	C118.693268,122.043556 118.693268,100.271713 118.693268,77.999855 
z"/>
<path fill="#0C0C0C" opacity="1.000000" stroke="none" 
	d="
M96.458763,119.999725 
	C96.458786,96.533066 96.458786,73.566406 96.458786,50.258934 
	C100.160072,50.258934 103.551163,50.258934 107.158501,50.258934 
	C107.158501,81.393539 107.158501,112.507271 107.158501,143.918701 
	C103.765587,143.918701 100.362061,143.918701 96.458740,143.918701 
	C96.458740,136.047379 96.458740,128.273544 96.458763,119.999725 
z"/>
<path fill="#0A0A0A" opacity="1.000000" stroke="none" 
	d="
M35.570297,100.627525 
	C35.579044,115.205315 35.579044,129.343536 35.579044,143.844070 
	C31.910828,143.844070 28.526461,143.844070 25.047035,143.844070 
	C25.047035,121.263870 25.047035,98.702766 25.047035,76.141670 
	C25.383482,76.041298 25.719929,75.940926 26.056376,75.840553 
	C29.224766,83.956360 32.393158,92.072159 35.570297,100.627525 
z"/>
</svg>