<svg version="1.1" id="Layer_1" xmlns="http://www.w3.org/2000/svg" xmlns:xlink="http://www.w3.org/1999/xlink" x="0px" y="0px"
	 width="100%" viewBox="0 0 192 192" enable-background="new 0 0 192 192" xml:space="preserve">
<path fill="#020202" opacity="1.000000" stroke="none" 
	d="
M85.000000,193.000000 
	C56.684795,193.000000 28.869593,193.000000 1.027194,193.000000 
	C1.027194,129.059830 1.027194,65.119637 1.027194,1.089725 
	C64.898384,1.089725 128.796936,1.089725 192.847748,1.089725 
	C192.847748,64.999725 192.847748,128.999817 192.847748,193.000000 
	C157.119934,193.000000 121.309967,193.000000 85.000000,193.000000 
M30.203255,49.933903 
	C28.441305,49.933903 26.679356,49.933903 23.911234,49.933903 
	C24.957600,54.262775 25.366005,57.917210 26.706884,61.189545 
	C37.667366,87.937950 48.870796,114.586937 59.787529,141.352951 
	C61.017403,144.368408 62.907185,144.179291 65.236557,144.220230 
	C67.773582,144.264832 69.810005,144.348785 71.125656,141.188873 
	C76.361900,128.612518 81.734619,116.079758 87.533585,103.755180 
	C92.050934,94.154427 88.813591,84.413193 90.067261,74.792755 
	C89.553772,74.688614 89.040291,74.584465 88.526802,74.480324 
	C80.944725,91.561249 73.362648,108.642174 65.504478,126.345062 
	C64.495697,124.350784 63.817719,123.207664 63.317078,121.991539 
	C53.956947,99.254539 44.662300,76.490311 35.178635,53.805065 
	C34.516823,52.221981 32.486141,51.211159 30.203255,49.933903 
M161.476044,144.180328 
	C163.932938,144.180328 166.389847,144.180328 168.976532,144.180328 
	C168.976532,140.531418 168.976532,137.321198 168.976532,133.616989 
	C155.625839,133.616989 142.558182,133.616989 129.116623,133.616989 
	C129.116623,105.528206 129.116623,77.937744 129.116623,50.220612 
	C125.485771,50.220612 122.251053,50.220612 118.912575,50.220612 
	C118.912575,81.572533 118.912575,112.656212 118.912575,144.180328 
	C132.908691,144.180328 146.696274,144.180328 161.476044,144.180328 
M96.518135,54.524193 
	C96.518135,84.255814 96.518135,113.987434 96.518135,143.869446 
	C100.321960,143.869446 103.706131,143.869446 107.107681,143.869446 
	C107.107681,112.511795 107.107681,81.467743 107.107681,49.951157 
	C104.450470,49.951157 101.971970,50.176037 99.552147,49.895233 
	C96.403221,49.529819 96.374084,51.361885 96.518135,54.524193 
M35.574810,138.326172 
	C35.574814,130.340866 35.258171,122.339783 35.654873,114.374229 
	C36.152088,104.390480 34.997280,94.904549 30.116037,85.995628 
	C28.387968,82.841660 27.250671,79.364006 25.843668,76.034126 
	C25.589865,76.158394 25.336060,76.282654 25.082256,76.406921 
	C25.082256,98.932961 25.082256,121.458992 25.082256,143.943405 
	C28.654757,143.943405 31.908360,143.943405 35.574768,143.943405 
	C35.574768,142.215225 35.574768,140.748611 35.574810,138.326172 
z"/>
<path fill="#F7F7F7" opacity="1.000000" stroke="none" 
	d="
M30.647633,49.934059 
	C32.486141,51.211159 34.516823,52.221981 35.178635,53.805065 
	C44.662300,76.490311 53.956947,99.254539 63.317078,121.991539 
	C63.817719,123.207664 64.495697,124.350784 65.504478,126.345062 
	C73.362648,108.642174 80.944725,91.561249 88.526802,74.480324 
	C89.040291,74.584465 89.553772,74.688614 90.067261,74.792755 
	C88.813591,84.413193 92.050934,94.154427 87.533585,103.755180 
	C81.734619,116.079758 76.361900,128.612518 71.125656,141.188873 
	C69.810005,144.348785 67.773582,144.264832 65.236557,144.220230 
	C62.907185,144.179291 61.017403,144.368408 59.787529,141.352951 
	C48.870796,114.586937 37.667366,87.937950 26.706884,61.189545 
	C25.366005,57.917210 24.957600,54.262775 23.911234,49.933903 
	C26.679356,49.933903 28.441305,49.933903 30.647633,49.934059 
z"/>
<path fill="#FFFFFF" opacity="1.000000" stroke="none" 
	d="
M160.979950,144.180328 
	C146.696274,144.180328 132.908691,144.180328 118.912575,144.180328 
	C118.912575,112.656212 118.912575,81.572533 118.912575,50.220612 
	C122.251053,50.220612 125.485771,50.220612 129.116623,50.220612 
	C129.116623,77.937744 129.116623,105.528206 129.116623,133.616989 
	C142.558182,133.616989 155.625839,133.616989 168.976532,133.616989 
	C168.976532,137.321198 168.976532,140.531418 168.976532,144.180328 
	C166.389847,144.180328 163.932938,144.180328 160.979950,144.180328 
z"/>
<path fill="#FEFEFE" opacity="1.000000" stroke="none" 
	d="
M96.518333,54.027359 
	C96.374084,51.361885 96.403221,49.529819 99.552147,49.895233 
	C101.971970,50.176037 104.450470,49.951157 107.107681,49.951157 
	C107.107681,81.467743 107.107681,112.511795 107.107681,143.869446 
	C103.706131,143.869446 100.321960,143.869446 96.518135,143.869446 
	C96.518135,113.987434 96.518135,84.255814 96.518333,54.027359 
z"/>
<path fill="#F5F5F5" opacity="1.000000" stroke="none" 
	d="
M35.574791,138.804077 
	C35.574768,140.748611 35.574768,142.215225 35.574768,143.943405 
	C31.908360,143.943405 28.654757,143.943405 25.082256,143.943405 
	C25.082256,121.458992 25.082256,98.932961 25.082256,76.406921 
	C25.336060,76.282654 25.589865,76.158394 25.843668,76.034126 
	C27.250671,79.364006 28.387968,82.841660 30.116037,85.995628 
	C34.997280,94.904549 36.152088,104.390480 35.654873,114.374229 
	C35.258171,122.339783 35.574814,130.340866 35.574791,138.804077 
z"/>
</svg>